<mxfile host="app.diagrams.net" agent="Mozilla/5.0 (Windows NT 10.0; Win64; x64) AppleWebKit/537.36 (KHTML, like Gecko) Chrome/131.0.0.0 Safari/537.36 OPR/116.0.0.0" version="26.0.16">
  <diagram name="PÃ¡gina-1" id="sV5zNXkwfLLdqxGEH9C8">
    <mxGraphModel dx="1920" dy="886" grid="1" gridSize="10" guides="1" tooltips="1" connect="1" arrows="1" fold="1" page="1" pageScale="1" pageWidth="827" pageHeight="1169" math="0" shadow="0">
      <root>
        <mxCell id="0" />
        <mxCell id="1" parent="0" />
        <mxCell id="PS1fSFhI5hwSEFOwjQgm-1" value="&lt;font style=&quot;font-size: 24px;&quot;&gt;File Sending/Receiving- Sequence Diagram&lt;/font&gt;" style="text;html=1;align=center;verticalAlign=middle;resizable=0;points=[];autosize=1;strokeColor=none;fillColor=none;" parent="1" vertex="1">
          <mxGeometry x="680" y="100" width="490" height="40" as="geometry" />
        </mxCell>
        <mxCell id="PS1fSFhI5hwSEFOwjQgm-2" value="Sender / Receiver" style="shape=umlActor;verticalLabelPosition=bottom;verticalAlign=top;html=1;" parent="1" vertex="1">
          <mxGeometry x="140" y="160" width="30" height="60" as="geometry" />
        </mxCell>
        <mxCell id="PS1fSFhI5hwSEFOwjQgm-3" value="FileAdapter" style="html=1;whiteSpace=wrap;" parent="1" vertex="1">
          <mxGeometry x="423.5" y="170" width="136" height="50" as="geometry" />
        </mxCell>
        <mxCell id="PS1fSFhI5hwSEFOwjQgm-4" value="NotificationService" style="html=1;whiteSpace=wrap;" parent="1" vertex="1">
          <mxGeometry x="1089.18" y="170" width="136.5" height="50" as="geometry" />
        </mxCell>
        <mxCell id="PS1fSFhI5hwSEFOwjQgm-5" value="DBMS" style="html=1;whiteSpace=wrap;" parent="1" vertex="1">
          <mxGeometry x="1609.1799999999998" y="170" width="136" height="50" as="geometry" />
        </mxCell>
        <mxCell id="PS1fSFhI5hwSEFOwjQgm-6" value="" style="endArrow=none;dashed=1;html=1;rounded=0;" parent="1" edge="1">
          <mxGeometry width="50" height="50" relative="1" as="geometry">
            <mxPoint x="150" y="1240" as="sourcePoint" />
            <mxPoint x="150" y="240" as="targetPoint" />
          </mxGeometry>
        </mxCell>
        <mxCell id="PS1fSFhI5hwSEFOwjQgm-7" value="" style="endArrow=none;dashed=1;html=1;rounded=0;" parent="1" edge="1">
          <mxGeometry width="50" height="50" relative="1" as="geometry">
            <mxPoint x="491" y="1240" as="sourcePoint" />
            <mxPoint x="491" y="220" as="targetPoint" />
          </mxGeometry>
        </mxCell>
        <mxCell id="PS1fSFhI5hwSEFOwjQgm-8" value="" style="endArrow=none;dashed=1;html=1;rounded=0;" parent="1" edge="1">
          <mxGeometry width="50" height="50" relative="1" as="geometry">
            <mxPoint x="1150" y="1240" as="sourcePoint" />
            <mxPoint x="1156.1799999999998" y="220" as="targetPoint" />
          </mxGeometry>
        </mxCell>
        <mxCell id="PS1fSFhI5hwSEFOwjQgm-9" value="" style="endArrow=none;dashed=1;html=1;rounded=0;" parent="1" edge="1">
          <mxGeometry width="50" height="50" relative="1" as="geometry">
            <mxPoint x="320" y="1240" as="sourcePoint" />
            <mxPoint x="319.5" y="220" as="targetPoint" />
          </mxGeometry>
        </mxCell>
        <mxCell id="PS1fSFhI5hwSEFOwjQgm-10" value="" style="endArrow=classic;html=1;rounded=0;" parent="1" edge="1">
          <mxGeometry width="50" height="50" relative="1" as="geometry">
            <mxPoint x="150" y="270" as="sourcePoint" />
            <mxPoint x="320" y="270" as="targetPoint" />
          </mxGeometry>
        </mxCell>
        <mxCell id="PS1fSFhI5hwSEFOwjQgm-11" value="input a File" style="edgeLabel;html=1;align=center;verticalAlign=middle;resizable=0;points=[];" parent="PS1fSFhI5hwSEFOwjQgm-10" vertex="1" connectable="0">
          <mxGeometry x="-0.0871" y="3" relative="1" as="geometry">
            <mxPoint y="-7" as="offset" />
          </mxGeometry>
        </mxCell>
        <mxCell id="PS1fSFhI5hwSEFOwjQgm-12" value="" style="endArrow=classic;html=1;rounded=0;" parent="1" edge="1">
          <mxGeometry width="50" height="50" relative="1" as="geometry">
            <mxPoint x="320" y="310" as="sourcePoint" />
            <mxPoint x="490" y="310" as="targetPoint" />
          </mxGeometry>
        </mxCell>
        <mxCell id="PS1fSFhI5hwSEFOwjQgm-13" value="Validate extension and give&amp;nbsp;&lt;div&gt;format to the input&lt;/div&gt;" style="edgeLabel;html=1;align=center;verticalAlign=middle;resizable=0;points=[];" parent="PS1fSFhI5hwSEFOwjQgm-12" vertex="1" connectable="0">
          <mxGeometry x="-0.1224" y="-1" relative="1" as="geometry">
            <mxPoint x="15" y="-21" as="offset" />
          </mxGeometry>
        </mxCell>
        <mxCell id="PS1fSFhI5hwSEFOwjQgm-14" value="UI" style="html=1;whiteSpace=wrap;" parent="1" vertex="1">
          <mxGeometry x="250" y="170" width="136" height="50" as="geometry" />
        </mxCell>
        <mxCell id="PS1fSFhI5hwSEFOwjQgm-15" value="" style="endArrow=none;dashed=1;html=1;rounded=0;" parent="1" edge="1">
          <mxGeometry width="50" height="50" relative="1" as="geometry">
            <mxPoint x="1677" y="1240" as="sourcePoint" />
            <mxPoint x="1676.6799999999998" y="220" as="targetPoint" />
          </mxGeometry>
        </mxCell>
        <mxCell id="PS1fSFhI5hwSEFOwjQgm-16" value="DatabaseHandler" style="html=1;whiteSpace=wrap;" parent="1" vertex="1">
          <mxGeometry x="1429.1799999999998" y="170" width="136" height="50" as="geometry" />
        </mxCell>
        <mxCell id="PS1fSFhI5hwSEFOwjQgm-17" value="" style="endArrow=none;dashed=1;html=1;rounded=0;" parent="1" edge="1">
          <mxGeometry width="50" height="50" relative="1" as="geometry">
            <mxPoint x="1502" y="1240" as="sourcePoint" />
            <mxPoint x="1502.1799999999998" y="220" as="targetPoint" />
          </mxGeometry>
        </mxCell>
        <mxCell id="PS1fSFhI5hwSEFOwjQgm-18" value="" style="endArrow=classic;html=1;rounded=0;" parent="1" edge="1">
          <mxGeometry width="50" height="50" relative="1" as="geometry">
            <mxPoint x="490" y="440" as="sourcePoint" />
            <mxPoint x="820" y="440" as="targetPoint" />
          </mxGeometry>
        </mxCell>
        <mxCell id="PS1fSFhI5hwSEFOwjQgm-19" value="Connect to the server (TCP/IP)" style="edgeLabel;html=1;align=center;verticalAlign=middle;resizable=0;points=[];" parent="PS1fSFhI5hwSEFOwjQgm-18" vertex="1" connectable="0">
          <mxGeometry x="-0.0422" y="2" relative="1" as="geometry">
            <mxPoint x="-78" y="-8" as="offset" />
          </mxGeometry>
        </mxCell>
        <mxCell id="PS1fSFhI5hwSEFOwjQgm-24" value="" style="endArrow=classic;html=1;rounded=0;" parent="1" edge="1">
          <mxGeometry width="50" height="50" relative="1" as="geometry">
            <mxPoint x="820" y="600" as="sourcePoint" />
            <mxPoint x="990" y="600" as="targetPoint" />
          </mxGeometry>
        </mxCell>
        <mxCell id="PS1fSFhI5hwSEFOwjQgm-25" value="Check if the receiver is connected" style="edgeLabel;html=1;align=center;verticalAlign=middle;resizable=0;points=[];" parent="PS1fSFhI5hwSEFOwjQgm-24" vertex="1" connectable="0">
          <mxGeometry x="-0.0094" relative="1" as="geometry">
            <mxPoint x="1" y="-10" as="offset" />
          </mxGeometry>
        </mxCell>
        <mxCell id="PS1fSFhI5hwSEFOwjQgm-26" value="" style="group" parent="1" vertex="1" connectable="0">
          <mxGeometry x="79.99891156462586" y="330" width="410.00108843537413" height="90" as="geometry" />
        </mxCell>
        <mxCell id="PS1fSFhI5hwSEFOwjQgm-27" value="Alt" style="shape=umlFrame;whiteSpace=wrap;html=1;pointerEvents=0;" parent="PS1fSFhI5hwSEFOwjQgm-26" vertex="1">
          <mxGeometry x="0.0010884353741431596" width="410" height="90" as="geometry" />
        </mxCell>
        <mxCell id="PS1fSFhI5hwSEFOwjQgm-28" value="" style="endArrow=classic;html=1;rounded=0;dashed=1;" parent="PS1fSFhI5hwSEFOwjQgm-26" edge="1">
          <mxGeometry width="50" height="50" relative="1" as="geometry">
            <mxPoint x="410.00108843537413" y="29" as="sourcePoint" />
            <mxPoint x="240.00108843537413" y="29" as="targetPoint" />
          </mxGeometry>
        </mxCell>
        <mxCell id="PS1fSFhI5hwSEFOwjQgm-29" value="Invalid Input" style="edgeLabel;html=1;align=center;verticalAlign=middle;resizable=0;points=[];" parent="PS1fSFhI5hwSEFOwjQgm-28" vertex="1" connectable="0">
          <mxGeometry x="0.4612" y="2" relative="1" as="geometry">
            <mxPoint x="34" y="-12" as="offset" />
          </mxGeometry>
        </mxCell>
        <mxCell id="PS1fSFhI5hwSEFOwjQgm-30" value="" style="endArrow=classic;html=1;rounded=0;" parent="PS1fSFhI5hwSEFOwjQgm-26" edge="1">
          <mxGeometry width="50" height="50" relative="1" as="geometry">
            <mxPoint x="240.00108843537413" y="60" as="sourcePoint" />
            <mxPoint x="70.00108843537414" y="60" as="targetPoint" />
          </mxGeometry>
        </mxCell>
        <mxCell id="PS1fSFhI5hwSEFOwjQgm-31" value="Show Invalid File extension" style="edgeLabel;html=1;align=center;verticalAlign=middle;resizable=0;points=[];" parent="PS1fSFhI5hwSEFOwjQgm-30" vertex="1" connectable="0">
          <mxGeometry x="-0.1224" y="-1" relative="1" as="geometry">
            <mxPoint x="-5" y="-11" as="offset" />
          </mxGeometry>
        </mxCell>
        <mxCell id="PS1fSFhI5hwSEFOwjQgm-32" value="[If input&amp;nbsp;&lt;div&gt;is invalid]&lt;/div&gt;" style="text;html=1;align=center;verticalAlign=middle;resizable=0;points=[];autosize=1;strokeColor=none;fillColor=none;" parent="PS1fSFhI5hwSEFOwjQgm-26" vertex="1">
          <mxGeometry y="30.001578947368415" width="70" height="40" as="geometry" />
        </mxCell>
        <mxCell id="PS1fSFhI5hwSEFOwjQgm-35" value="FileService" style="html=1;whiteSpace=wrap;" parent="1" vertex="1">
          <mxGeometry x="920" y="170" width="136.5" height="50" as="geometry" />
        </mxCell>
        <mxCell id="PS1fSFhI5hwSEFOwjQgm-36" value="" style="endArrow=none;dashed=1;html=1;rounded=0;" parent="1" edge="1">
          <mxGeometry width="50" height="50" relative="1" as="geometry">
            <mxPoint x="990" y="1240" as="sourcePoint" />
            <mxPoint x="987" y="220" as="targetPoint" />
          </mxGeometry>
        </mxCell>
        <mxCell id="PS1fSFhI5hwSEFOwjQgm-37" value="SecurityModule" style="html=1;whiteSpace=wrap;" parent="1" vertex="1">
          <mxGeometry x="1259.1799999999998" y="170" width="136" height="50" as="geometry" />
        </mxCell>
        <mxCell id="PS1fSFhI5hwSEFOwjQgm-38" value="" style="endArrow=none;dashed=1;html=1;rounded=0;" parent="1" edge="1">
          <mxGeometry width="50" height="50" relative="1" as="geometry">
            <mxPoint x="1332" y="1240" as="sourcePoint" />
            <mxPoint x="1332.1799999999998" y="220" as="targetPoint" />
          </mxGeometry>
        </mxCell>
        <mxCell id="PS1fSFhI5hwSEFOwjQgm-69" value="ClientManager" style="html=1;whiteSpace=wrap;" parent="1" vertex="1">
          <mxGeometry x="750" y="170" width="136.5" height="50" as="geometry" />
        </mxCell>
        <mxCell id="PS1fSFhI5hwSEFOwjQgm-70" value="" style="endArrow=none;dashed=1;html=1;rounded=0;" parent="1" edge="1">
          <mxGeometry width="50" height="50" relative="1" as="geometry">
            <mxPoint x="820" y="1240" as="sourcePoint" />
            <mxPoint x="817" y="220" as="targetPoint" />
          </mxGeometry>
        </mxCell>
        <mxCell id="PS1fSFhI5hwSEFOwjQgm-88" value="NotificationManager" style="html=1;whiteSpace=wrap;" parent="1" vertex="1">
          <mxGeometry x="590" y="170" width="136.5" height="50" as="geometry" />
        </mxCell>
        <mxCell id="PS1fSFhI5hwSEFOwjQgm-89" value="" style="endArrow=none;dashed=1;html=1;rounded=0;" parent="1" edge="1">
          <mxGeometry width="50" height="50" relative="1" as="geometry">
            <mxPoint x="657" y="1240" as="sourcePoint" />
            <mxPoint x="657" y="220" as="targetPoint" />
          </mxGeometry>
        </mxCell>
        <mxCell id="PS1fSFhI5hwSEFOwjQgm-90" value="" style="endArrow=classic;html=1;rounded=0;" parent="1" edge="1">
          <mxGeometry width="50" height="50" relative="1" as="geometry">
            <mxPoint x="990" y="985" as="sourcePoint" />
            <mxPoint x="1160" y="985" as="targetPoint" />
          </mxGeometry>
        </mxCell>
        <mxCell id="PS1fSFhI5hwSEFOwjQgm-91" value="Prepare the notification data" style="edgeLabel;html=1;align=center;verticalAlign=middle;resizable=0;points=[];" parent="PS1fSFhI5hwSEFOwjQgm-90" vertex="1" connectable="0">
          <mxGeometry x="-0.0094" relative="1" as="geometry">
            <mxPoint x="1" y="-10" as="offset" />
          </mxGeometry>
        </mxCell>
        <mxCell id="PS1fSFhI5hwSEFOwjQgm-92" value="" style="endArrow=classic;html=1;rounded=0;" parent="1" edge="1">
          <mxGeometry width="50" height="50" relative="1" as="geometry">
            <mxPoint x="1160" y="1015" as="sourcePoint" />
            <mxPoint x="660" y="1015" as="targetPoint" />
          </mxGeometry>
        </mxCell>
        <mxCell id="PS1fSFhI5hwSEFOwjQgm-93" value="Send the notification data" style="edgeLabel;html=1;align=center;verticalAlign=middle;resizable=0;points=[];" parent="PS1fSFhI5hwSEFOwjQgm-92" vertex="1" connectable="0">
          <mxGeometry x="-0.1247" y="2" relative="1" as="geometry">
            <mxPoint x="-31" y="-12" as="offset" />
          </mxGeometry>
        </mxCell>
        <mxCell id="PS1fSFhI5hwSEFOwjQgm-94" value="" style="endArrow=classic;html=1;rounded=0;" parent="1" edge="1">
          <mxGeometry width="50" height="50" relative="1" as="geometry">
            <mxPoint x="1330" y="840" as="sourcePoint" />
            <mxPoint x="990" y="840" as="targetPoint" />
          </mxGeometry>
        </mxCell>
        <mxCell id="PS1fSFhI5hwSEFOwjQgm-105" value="Send the File to the receivers app" style="edgeLabel;html=1;align=center;verticalAlign=middle;resizable=0;points=[];" parent="PS1fSFhI5hwSEFOwjQgm-94" vertex="1" connectable="0">
          <mxGeometry x="-0.0366" y="2" relative="1" as="geometry">
            <mxPoint y="-12" as="offset" />
          </mxGeometry>
        </mxCell>
        <mxCell id="PS1fSFhI5hwSEFOwjQgm-97" value="Alt" style="shape=umlFrame;whiteSpace=wrap;html=1;pointerEvents=0;" parent="1" vertex="1">
          <mxGeometry x="40" y="460" width="790" height="110" as="geometry" />
        </mxCell>
        <mxCell id="PS1fSFhI5hwSEFOwjQgm-98" value="[If Server is full]" style="text;html=1;align=center;verticalAlign=middle;resizable=0;points=[];autosize=1;strokeColor=none;fillColor=none;" parent="1" vertex="1">
          <mxGeometry x="39.99891156462587" y="505.00157894736844" width="110" height="30" as="geometry" />
        </mxCell>
        <mxCell id="PS1fSFhI5hwSEFOwjQgm-99" value="" style="endArrow=classic;html=1;rounded=0;" parent="1" edge="1">
          <mxGeometry width="50" height="50" relative="1" as="geometry">
            <mxPoint x="820" y="490" as="sourcePoint" />
            <mxPoint x="320" y="490" as="targetPoint" />
          </mxGeometry>
        </mxCell>
        <mxCell id="PS1fSFhI5hwSEFOwjQgm-100" value="Send Expected waiting time" style="edgeLabel;html=1;align=center;verticalAlign=middle;resizable=0;points=[];" parent="PS1fSFhI5hwSEFOwjQgm-99" vertex="1" connectable="0">
          <mxGeometry x="0.0871" y="1" relative="1" as="geometry">
            <mxPoint x="-65" y="-11" as="offset" />
          </mxGeometry>
        </mxCell>
        <mxCell id="PS1fSFhI5hwSEFOwjQgm-101" value="" style="endArrow=classic;html=1;rounded=0;" parent="1" edge="1">
          <mxGeometry width="50" height="50" relative="1" as="geometry">
            <mxPoint x="320" y="505" as="sourcePoint" />
            <mxPoint x="150" y="505" as="targetPoint" />
          </mxGeometry>
        </mxCell>
        <mxCell id="PS1fSFhI5hwSEFOwjQgm-102" value="Show the expected&amp;nbsp;&lt;div&gt;waiting time to the user&lt;/div&gt;" style="edgeLabel;html=1;align=center;verticalAlign=middle;resizable=0;points=[];" parent="PS1fSFhI5hwSEFOwjQgm-101" vertex="1" connectable="0">
          <mxGeometry x="-0.0244" y="2" relative="1" as="geometry">
            <mxPoint x="3" y="-17" as="offset" />
          </mxGeometry>
        </mxCell>
        <mxCell id="PS1fSFhI5hwSEFOwjQgm-103" value="" style="endArrow=classic;html=1;rounded=0;" parent="1" edge="1">
          <mxGeometry width="50" height="50" relative="1" as="geometry">
            <mxPoint x="490" y="560" as="sourcePoint" />
            <mxPoint x="490" y="520" as="targetPoint" />
            <Array as="points">
              <mxPoint x="520" y="560" />
              <mxPoint x="520" y="520" />
            </Array>
          </mxGeometry>
        </mxCell>
        <mxCell id="PS1fSFhI5hwSEFOwjQgm-104" value="Wait" style="text;html=1;align=center;verticalAlign=middle;resizable=0;points=[];autosize=1;strokeColor=none;fillColor=none;" parent="1" vertex="1">
          <mxGeometry x="509.5" y="530" width="50" height="30" as="geometry" />
        </mxCell>
        <mxCell id="PS1fSFhI5hwSEFOwjQgm-106" value="" style="endArrow=classic;html=1;rounded=0;" parent="1" edge="1">
          <mxGeometry width="50" height="50" relative="1" as="geometry">
            <mxPoint x="1325" y="900" as="sourcePoint" />
            <mxPoint x="490" y="900" as="targetPoint" />
          </mxGeometry>
        </mxCell>
        <mxCell id="PS1fSFhI5hwSEFOwjQgm-107" value="Provide format to the File" style="edgeLabel;html=1;align=center;verticalAlign=middle;resizable=0;points=[];" parent="PS1fSFhI5hwSEFOwjQgm-106" vertex="1" connectable="0">
          <mxGeometry x="-0.0242" y="-3" relative="1" as="geometry">
            <mxPoint x="1" y="-12" as="offset" />
          </mxGeometry>
        </mxCell>
        <mxCell id="PS1fSFhI5hwSEFOwjQgm-108" value="" style="endArrow=classic;html=1;rounded=0;" parent="1" edge="1">
          <mxGeometry width="50" height="50" relative="1" as="geometry">
            <mxPoint x="490" y="919.41" as="sourcePoint" />
            <mxPoint x="320" y="919.41" as="targetPoint" />
          </mxGeometry>
        </mxCell>
        <mxCell id="PS1fSFhI5hwSEFOwjQgm-109" value="Show the File to the receiver" style="edgeLabel;html=1;align=center;verticalAlign=middle;resizable=0;points=[];" parent="PS1fSFhI5hwSEFOwjQgm-108" vertex="1" connectable="0">
          <mxGeometry x="-0.0242" y="-3" relative="1" as="geometry">
            <mxPoint x="1" y="-12" as="offset" />
          </mxGeometry>
        </mxCell>
        <mxCell id="PS1fSFhI5hwSEFOwjQgm-110" value="" style="endArrow=classic;html=1;rounded=0;dashed=1;" parent="1" edge="1">
          <mxGeometry width="50" height="50" relative="1" as="geometry">
            <mxPoint x="320" y="955" as="sourcePoint" />
            <mxPoint x="990" y="955" as="targetPoint" />
          </mxGeometry>
        </mxCell>
        <mxCell id="PS1fSFhI5hwSEFOwjQgm-112" value="File sent" style="edgeLabel;html=1;align=center;verticalAlign=middle;resizable=0;points=[];" parent="PS1fSFhI5hwSEFOwjQgm-110" vertex="1" connectable="0">
          <mxGeometry x="0.0606" y="-2" relative="1" as="geometry">
            <mxPoint x="-17" y="-12" as="offset" />
          </mxGeometry>
        </mxCell>
        <mxCell id="PS1fSFhI5hwSEFOwjQgm-114" value="" style="endArrow=classic;html=1;rounded=0;" parent="1" edge="1">
          <mxGeometry width="50" height="50" relative="1" as="geometry">
            <mxPoint x="660" y="1035" as="sourcePoint" />
            <mxPoint x="320" y="1035" as="targetPoint" />
          </mxGeometry>
        </mxCell>
        <mxCell id="PS1fSFhI5hwSEFOwjQgm-115" value="Provide the proper format to the notification" style="edgeLabel;html=1;align=center;verticalAlign=middle;resizable=0;points=[];" parent="PS1fSFhI5hwSEFOwjQgm-114" vertex="1" connectable="0">
          <mxGeometry x="-0.1247" y="2" relative="1" as="geometry">
            <mxPoint x="-31" y="-12" as="offset" />
          </mxGeometry>
        </mxCell>
        <mxCell id="PS1fSFhI5hwSEFOwjQgm-117" value="Alt" style="shape=umlFrame;whiteSpace=wrap;html=1;pointerEvents=0;" parent="1" vertex="1">
          <mxGeometry x="45" y="1090" width="300" height="75" as="geometry" />
        </mxCell>
        <mxCell id="PS1fSFhI5hwSEFOwjQgm-118" value="" style="endArrow=classic;html=1;rounded=0;" parent="1" edge="1">
          <mxGeometry width="50" height="50" relative="1" as="geometry">
            <mxPoint x="320" y="1075" as="sourcePoint" />
            <mxPoint x="150" y="1075" as="targetPoint" />
          </mxGeometry>
        </mxCell>
        <mxCell id="PS1fSFhI5hwSEFOwjQgm-120" value="Show notification" style="edgeLabel;html=1;align=center;verticalAlign=middle;resizable=0;points=[];" parent="PS1fSFhI5hwSEFOwjQgm-118" vertex="1" connectable="0">
          <mxGeometry x="-0.5017" y="3" relative="1" as="geometry">
            <mxPoint x="-38" y="-13" as="offset" />
          </mxGeometry>
        </mxCell>
        <mxCell id="PS1fSFhI5hwSEFOwjQgm-121" value="" style="endArrow=classic;html=1;rounded=0;" parent="1" edge="1">
          <mxGeometry width="50" height="50" relative="1" as="geometry">
            <mxPoint x="320" y="1135" as="sourcePoint" />
            <mxPoint x="150" y="1135" as="targetPoint" />
          </mxGeometry>
        </mxCell>
        <mxCell id="PS1fSFhI5hwSEFOwjQgm-122" value="Make sound" style="edgeLabel;html=1;align=center;verticalAlign=middle;resizable=0;points=[];" parent="PS1fSFhI5hwSEFOwjQgm-121" vertex="1" connectable="0">
          <mxGeometry x="-0.0242" y="-3" relative="1" as="geometry">
            <mxPoint x="1" y="-12" as="offset" />
          </mxGeometry>
        </mxCell>
        <mxCell id="PS1fSFhI5hwSEFOwjQgm-123" value="[if is not muted]" style="text;html=1;align=center;verticalAlign=middle;resizable=0;points=[];autosize=1;strokeColor=none;fillColor=none;" parent="1" vertex="1">
          <mxGeometry x="50" y="1123" width="100" height="30" as="geometry" />
        </mxCell>
        <mxCell id="PS1fSFhI5hwSEFOwjQgm-124" value="" style="endArrow=classic;html=1;rounded=0;" parent="1" edge="1">
          <mxGeometry width="50" height="50" relative="1" as="geometry">
            <mxPoint x="990" y="640" as="sourcePoint" />
            <mxPoint x="1330" y="640" as="targetPoint" />
          </mxGeometry>
        </mxCell>
        <mxCell id="PS1fSFhI5hwSEFOwjQgm-125" value="Cipher the File" style="edgeLabel;html=1;align=center;verticalAlign=middle;resizable=0;points=[];" parent="PS1fSFhI5hwSEFOwjQgm-124" vertex="1" connectable="0">
          <mxGeometry x="0.2837" y="-2" relative="1" as="geometry">
            <mxPoint x="-50" y="-12" as="offset" />
          </mxGeometry>
        </mxCell>
        <mxCell id="PS1fSFhI5hwSEFOwjQgm-126" value="" style="endArrow=classic;html=1;rounded=0;" parent="1" edge="1">
          <mxGeometry width="50" height="50" relative="1" as="geometry">
            <mxPoint x="987.43" y="870" as="sourcePoint" />
            <mxPoint x="1327.43" y="870" as="targetPoint" />
          </mxGeometry>
        </mxCell>
        <mxCell id="PS1fSFhI5hwSEFOwjQgm-127" value="Decipher the File" style="edgeLabel;html=1;align=center;verticalAlign=middle;resizable=0;points=[];" parent="PS1fSFhI5hwSEFOwjQgm-126" vertex="1" connectable="0">
          <mxGeometry x="0.2837" y="-2" relative="1" as="geometry">
            <mxPoint x="-50" y="-12" as="offset" />
          </mxGeometry>
        </mxCell>
        <mxCell id="PS1fSFhI5hwSEFOwjQgm-20" value="" style="endArrow=classic;html=1;rounded=0;" parent="1" edge="1">
          <mxGeometry width="50" height="50" relative="1" as="geometry">
            <mxPoint x="1499.9999999999998" y="749" as="sourcePoint" />
            <mxPoint x="1669.9999999999998" y="749" as="targetPoint" />
          </mxGeometry>
        </mxCell>
        <mxCell id="PS1fSFhI5hwSEFOwjQgm-21" value="Add it to the receiver&#39;s waiting&lt;div&gt;&amp;nbsp;Files in the database&lt;/div&gt;" style="edgeLabel;html=1;align=center;verticalAlign=middle;resizable=0;points=[];" parent="PS1fSFhI5hwSEFOwjQgm-20" vertex="1" connectable="0">
          <mxGeometry x="0.12" y="-2" relative="1" as="geometry">
            <mxPoint x="-15" y="-18" as="offset" />
          </mxGeometry>
        </mxCell>
        <mxCell id="PS1fSFhI5hwSEFOwjQgm-22" value="" style="endArrow=classic;html=1;rounded=0;dashed=1;" parent="1" edge="1">
          <mxGeometry width="50" height="50" relative="1" as="geometry">
            <mxPoint x="1679.9999999999998" y="780" as="sourcePoint" />
            <mxPoint x="1330" y="780" as="targetPoint" />
          </mxGeometry>
        </mxCell>
        <mxCell id="PS1fSFhI5hwSEFOwjQgm-23" value="Return data from the database" style="edgeLabel;html=1;align=center;verticalAlign=middle;resizable=0;points=[];" parent="PS1fSFhI5hwSEFOwjQgm-22" vertex="1" connectable="0">
          <mxGeometry x="0.12" y="-2" relative="1" as="geometry">
            <mxPoint x="15" y="-8" as="offset" />
          </mxGeometry>
        </mxCell>
        <mxCell id="PS1fSFhI5hwSEFOwjQgm-61" value="Alt" style="shape=umlFrame;whiteSpace=wrap;html=1;pointerEvents=0;" parent="1" vertex="1">
          <mxGeometry x="1220" y="650" width="520" height="150" as="geometry" />
        </mxCell>
        <mxCell id="PS1fSFhI5hwSEFOwjQgm-64" value="" style="endArrow=classic;html=1;rounded=0;" parent="1" edge="1">
          <mxGeometry width="50" height="50" relative="1" as="geometry">
            <mxPoint x="1329.9999999999998" y="700" as="sourcePoint" />
            <mxPoint x="1500" y="700" as="targetPoint" />
          </mxGeometry>
        </mxCell>
        <mxCell id="PS1fSFhI5hwSEFOwjQgm-65" value="Connect to the database" style="edgeLabel;html=1;align=center;verticalAlign=middle;resizable=0;points=[];" parent="PS1fSFhI5hwSEFOwjQgm-64" vertex="1" connectable="0">
          <mxGeometry x="0.3205" y="2" relative="1" as="geometry">
            <mxPoint x="-38" y="-12" as="offset" />
          </mxGeometry>
        </mxCell>
        <mxCell id="PS1fSFhI5hwSEFOwjQgm-87" value="[Receiver is&amp;nbsp;&lt;div&gt;not connected]&lt;/div&gt;" style="text;html=1;align=center;verticalAlign=middle;resizable=0;points=[];autosize=1;strokeColor=none;fillColor=none;" parent="1" vertex="1">
          <mxGeometry x="1225" y="710" width="100" height="40" as="geometry" />
        </mxCell>
      </root>
    </mxGraphModel>
  </diagram>
</mxfile>
